<svg xmlns="http://www.w3.org/2000/svg" xmlns:xlink="http://www.w3.org/1999/xlink" width="32" height="40" version="1.1"><rect id="backgroundrect" width="100%" height="100%" x="0" y="0" fill="none" stroke="none"/>
    <!-- Generator: Sketch 48.1 (47250) - http://www.bohemiancoding.com/sketch -->
    <title>LOGO</title>
    <desc>Created with Sketch.</desc>
    <defs>
        <polygon id="path-1" points="6.50557515 6.8668505 0.0122782746 6.8668505 0.0122782746 0.0647553409 6.50557515 0.0647553409 6.50557515 6.8668505"/>
        <polygon id="path-3" points="0 12.417702 0 0.000470332226 31.9731277 0.000470332226 31.9731277 12.417702 31.9731277 24.8349337 0 24.8349337 0 12.417702"/>
    </defs>
    
<g class="currentLayer" style=""><title>Layer 1</title><g id="Desktop/tablet-home-Copy-3" stroke="none" stroke-width="1" fill="#ffffff" fill-rule="evenodd" class="selected" fill-opacity="1">
        <g id="Page-1" fill="#ffffff" fill-opacity="1">
            <g id="svg_1" fill="#ffffff" fill-opacity="1">
                <g id="Group-3" fill="#ffffff" fill-opacity="1">
                    <mask id="mask-2" fill="white" transform="translate(5.193227767944336,33.01685333251953) translate(160,15) translate(-160,-15) ">
                        <use xlink:href="#path-1" id="svg_2"/>
                    </mask>
                    <g id="Clip-2" fill="#ffffff" fill-opacity="1"/>
                    <path d="M9.707849167944346,38.03392481251953 C9.707849167944346,38.80508153251953 9.923460857944349,39.19056582251953 10.354962457944339,39.19056582251953 C10.78943161794433,39.19056582251953 11.00643434794435,38.80508153251953 11.00643434794435,38.03392481251953 C11.00643434794435,37.26286216251953 10.78943161794433,36.87737787251953 10.354962457944339,36.87737787251953 C9.923460857944349,36.87737787251953 9.707849167944346,37.26286216251953 9.707849167944346,38.03392481251953 M10.354962457944339,39.88374146251953 C9.458945167944336,39.88374146251953 9.011121997944343,39.267135912519535 9.011121997944343,38.03392481251953 C9.011121997944343,36.80099591251953 9.458945167944336,36.18420223251953 10.354962457944339,36.18420223251953 C11.250979747944342,36.18420223251953 11.698802917944334,36.80099591251953 11.698802917944334,38.03392481251953 C11.698802917944334,39.267135912519535 11.250979747944342,39.88374146251953 10.354962457944339,39.88374146251953 M6.128787774944328,39.76888633251953 C6.119514153944323,39.753741632519535 6.119514153944323,39.73690373251953 6.128787774944328,39.71837264251953 L10.06089592794433,33.19166641451953 C10.072858897944343,33.17953184251953 10.084821867944328,33.17341752351953 10.097063047944346,33.17341752351953 L10.744176337944339,33.17341752351953 C10.762259907944326,33.17341752351953 10.775057497944346,33.18169537151953 10.782661867944341,33.19862733151953 C10.789988027944332,33.21537115851953 10.78943161794433,33.233149716519534 10.780250727944349,33.25139860651953 L6.834510357944339,39.77358965251953 C6.822547377944346,39.78581829251953 6.810306197944328,39.79183854251953 6.798250497944338,39.79183854251953 L6.169406236944326,39.79183854251953 C6.151322674944339,39.79183854251953 6.137783187944336,39.78431322251953 6.128787774944328,39.76888633251953 M5.897874605944338,34.93142532251953 C5.897874605944338,35.70229983251953 6.115155551944326,36.08797226251953 6.549439237944341,36.08797226251953 C6.980848097944346,36.08797226251953 7.196459787944349,35.70229983251953 7.196459787944349,34.93142532251953 C7.196459787944349,34.160174532519534 6.980848097944346,33.774596175519534 6.549439237944341,33.774596175519534 C6.115155551944326,33.774596175519534 5.897874605944338,34.160174532519534 5.897874605944338,34.93142532251953 M5.205506042544329,34.93142532251953 C5.205506042544329,33.69812015551953 5.6536074219443435,33.08160867341953 6.549439237944341,33.08160867341953 C7.442396227944329,33.08160867341953 7.888828357944334,33.69812015551953 7.888828357944334,34.93142532251953 C7.888828357944334,36.16755247251953 7.442396227944329,36.78556902251953 6.549439237944341,36.78556902251953 C5.6536074219443435,36.78556902251953 5.205506042544329,36.16755247251953 5.205506042544329,34.93142532251953 " id="Fill-1" fill="#ffffff" mask="url(#mask-2)" fill-opacity="1"/>
                </g>
                <path d="M4.685376590000004,26.6342461 L4.685376590000004,25.6450433 C4.685376590000004,25.6143777 4.701790899999992,25.5990449 4.735175929999997,25.5990449 L5.710297209999993,25.5990449 C5.740529210000005,25.5990449 5.755645219999991,25.6143777 5.755645219999991,25.6450433 L5.755645219999991,26.6342461 C5.755645219999991,26.6679219 5.740529210000005,26.6846657 5.710297209999993,26.6846657 L4.735175929999997,26.6846657 C4.701790899999992,26.6846657 4.685376590000004,26.6679219 4.685376590000004,26.6342461 M1.0660676800000033,28.1247289 L1.0660676800000033,27.5128267 C1.0660676800000033,27.4822551 1.0810909500000037,27.4668282 1.1114156900000012,27.4668282 L2.1228895600000044,27.4668282 C2.152936089999997,27.4668282 2.1682375700000023,27.4500844 2.1682375700000023,27.4162204 L2.1682375700000023,26.7124153 C2.1682375700000023,25.9518881 2.605117860000007,25.5806078 3.4788784600000042,25.5990449 L4.100211080000008,25.5990449 C4.133503380000008,25.5990449 4.1501959,25.6143777 4.1501959,25.6450433 L4.1501959,26.3535518 C4.1501959,26.3842175 4.133503380000008,26.3995503 4.100211080000008,26.3995503 L3.487873869999987,26.3995503 C3.3518298500000014,26.3995503 3.245275939999999,26.441598 3.168212149999988,26.5261637 C3.0911483499999974,26.6103532 3.0526628300000027,26.7262431 3.0526628300000027,26.873363 L3.0526628300000027,27.4162204 C3.0526628300000027,27.4500844 3.067686089999995,27.4668282 3.0980108299999927,27.4668282 L5.615149849999995,27.4668282 C5.645289120000001,27.4668282 5.660497859999992,27.4822551 5.660497859999992,27.5128267 L5.660497859999992,32.1868943 C5.660497859999992,32.217654 5.645289120000001,32.2329868 5.615149849999995,32.2329868 L4.825871949999993,32.2329868 C4.795547209999995,32.2329868 4.780523939999995,32.217654 4.780523939999995,32.1868943 L4.780523939999995,28.2213351 C4.780523939999995,28.1876594 4.765407939999989,28.1707274 4.735175929999997,28.1707274 L3.0980108299999927,28.1707274 C3.067686089999995,28.1707274 3.0526628300000027,28.1876594 3.0526628300000027,28.2213351 L3.0526628300000027,32.1868943 C3.0526628300000027,32.217654 3.0373613499999976,32.2329868 3.007222079999991,32.2329868 L2.218036909999995,32.2329868 C2.18465187999999,32.2329868 2.1682375700000023,32.217654 2.1682375700000023,32.1868943 L2.1682375700000023,28.2213351 C2.1682375700000023,28.1876594 2.152936089999997,28.1707274 2.1228895600000044,28.1707274 L1.1114156900000012,28.1707274 C1.0810909500000037,28.1707274 1.0660676800000033,28.1553946 1.0660676800000033,28.1247289 " id="Fill-4" fill="#ffffff" fill-opacity="1"/>
                <path d="M31.815151600000007,28.9182923 C31.815151600000007,27.0944379 30.357616500000006,25.6159956 28.559554100000014,25.6159956 C26.761491699999993,25.6159956 25.303956599999992,27.0944379 25.303956599999992,28.9182923 C25.303956599999992,30.7421466 26.761491699999993,32.2205889 28.559554100000014,32.2205889 C30.357616500000006,32.2205889 31.815151600000007,30.7421466 31.815151600000007,28.9182923 " id="Fill-6" fill="#ffffff" fill-opacity="1"/>
                <path d="M16.27912810000001,32.8724787 C14.47327580000001,32.8724787 13.0092492,34.3574117 13.0092492,36.1893557 C13.0092492,38.0210175 14.47327580000001,39.5060445 16.27912810000001,39.5060445 C18.08507309999999,39.5060445 19.549006899999995,38.0210175 19.549006899999995,36.1893557 C19.549006899999995,34.3574117 18.08507309999999,32.8724787 16.27912810000001,32.8724787 M16.27912810000001,33.7060015 C17.628996400000005,33.7060015 18.727178600000002,34.8200304 18.727178600000002,36.1893557 C18.727178600000002,37.5583987 17.628996400000005,38.6724276 16.27912810000001,38.6724276 C14.929259699999989,38.6724276 13.831077499999992,37.5583987 13.831077499999992,36.1893557 C13.831077499999992,34.8200304 14.929259699999989,33.7060015 16.27912810000001,33.7060015 " id="Fill-8" fill="#ffffff" fill-opacity="1"/>
                <g id="Group-12" fill="#ffffff" fill-opacity="1">
                    <mask id="mask-4" fill="white" transform="translate(0,0.09359599649906158) translate(160,15) translate(-160,-15) ">
                        <use xlink:href="#path-3" id="svg_3"/>
                    </mask>
                    <g id="Clip-11" fill="#ffffff" fill-opacity="1"/>
                    <path d="M2.5898442099999954,18.06309019649906 C3.1891056199999923,18.61065099649906 3.758598699999993,19.072611296499062 4.298416190000012,19.44981769649906 C4.83767727,19.826930096499062 5.544976359999993,20.173753096499063 6.420869890000006,20.48953419649906 C7.29565058,20.80578559649906 8.081311779999993,21.060705596499062 8.777668000000006,21.253259596499063 C9.474116949999996,21.446377996499063 10.314214300000003,21.613722296499063 11.29916560000001,21.75651509649906 C12.2830041,21.89883759649906 13.068665299999992,22.012469896499063 13.656427400000013,22.097505996499063 C14.244282300000009,22.18291829649906 15.035507599999988,22.29645649649906 16.030196200000006,22.439813796499063 C16.168002300000012,22.46041429649906 16.491280700000004,22.50716529649906 17.000216999999992,22.57997279649906 C17.5087824,22.653062396499063 17.884549600000014,22.70724469649906 18.127425700000003,22.742425496499063 C18.370301799999993,22.777606396499063 18.751354899999995,22.832447096499063 19.271883300000013,22.90788839649906 C19.791762500000004,22.98342379649906 20.21009559999999,23.056231196499063 20.527902600000004,23.128191996499062 C20.84459670000001,23.19940029649906 21.2430842,23.30861149649906 21.723457800000006,23.454414496499062 C22.203182200000015,23.600687796499063 22.580896800000005,23.752040696499062 22.856972500000012,23.90988419649906 C23.13304819999999,24.067821696499063 23.43842860000001,24.26893579649906 23.7745046,24.511815396499063 C23.961460799999998,24.646894796499062 24.122172699999993,24.785924996499062 24.257103900000004,24.928529696499062 L31.973127699999992,24.928529696499062 C31.90589399999999,24.579919496499063 31.823080500000003,24.244478496499063 31.72487290000001,23.92248909649906 C30.789071699999994,20.861002596499063 28.306801500000006,18.746859196499063 24.27704220000001,17.580529296499062 C22.789553299999994,17.15422019649906 20.018780700000008,16.68012529649906 15.964353499999987,16.159279396499063 C15.725835999999987,16.122029096499062 15.3238245,16.059098696499063 14.758875499999988,15.969641496499062 C14.19337010000001,15.880654596499062 13.672378000000009,15.79815829649906 13.196455799999995,15.723281496499062 C12.720162600000009,15.647840196499061 12.313328799999994,15.583968996499062 11.976139999999987,15.530162996499062 C11.638209200000006,15.476921396499062 11.254003100000006,15.382478696499062 10.823336100000006,15.245235796499061 C10.39313279999999,15.108933496499061 9.902836470000011,14.916849796499061 9.353188929999988,14.668514396499061 C8.803448660000015,14.420555296499062 8.380107850000002,14.147574396499062 8.083815649999991,13.849948196499062 C7.786410619999998,13.552321996499062 7.534075389999998,13.18630939649906 7.325882589999992,12.751910596499062 C7.118246209999995,12.31760579649906 7.014103440000014,11.839936396499061 7.014103440000014,11.318431996499061 C7.014103440000014,10.004229716499061 7.691170529999994,8.862921536499062 9.046324809999987,7.894601546499062 C10.401015400000006,6.926845956499061 12.373700100000008,6.442591896499062 14.963080600000012,6.442591896499062 C17.888537200000002,6.442591896499062 20.154639299999985,7.057504256499062 21.761572400000006,8.285259496499062 C23.367485399999993,9.513579136499061 24.17141559999999,11.173663796499062 24.17141559999999,13.265701496499062 C24.17141559999999,13.509145496499062 24.290859899999987,13.630302996499061 24.531417599999997,13.630302996499061 L30.8618697,13.630302996499061 C31.053184499999986,13.630302996499061 31.149444700000004,13.509145496499062 31.149444700000004,13.265701496499062 C31.149444700000004,10.419533096499062 30.423783799999995,7.987633266499062 28.973482200000007,5.968591086499062 C27.52216039999999,3.949925166499062 25.597976799999998,2.4657447964990613 23.200467500000002,1.517460966499062 C20.80203080000001,0.5687067974990613 18.056575199999997,0.0940475154360616 14.963080600000012,0.0940475154360616 C10.503210700000011,0.0940475154360616 6.893731839999987,1.1649939964990619 4.136313290000004,3.304817486499062 C1.378431059999997,5.445581646499061 0,8.084615766499063 0,11.222390196499061 C0,12.219964796499061 0.11360185999998862,13.150093796499062 0.34145473500001355,14.013341596499062 C0.5694930820000081,14.877153796499062 0.8511329600000009,15.631284496499061 1.1871162600000105,16.27535739649906 C1.5227286100000017,16.920276996499062 1.9901191200000028,17.51609379649906 2.5898442099999954,18.06309019649906 z" id="Fill-10" fill="#ffffff" mask="url(#mask-4)" fill-opacity="1"/>
                </g>
                <polygon id="Fill-13" fill="#ffffff" points="20.230316162109375,39.49483108520508 26.776565551757812,39.49483108520508 26.776565551757812,32.85458755493164 20.230316162109375,32.85458755493164 " fill-opacity="1"/>
            </g>
        </g>
    </g></g></svg>